<svg xmlns="http://www.w3.org/2000/svg" height="800" width="1200" viewBox="-153.3 -67.25 1328.6 403.5"><g fill="#de1f27"><path d="M0 0h1022v267.93c-93-.29-186-.04-279-.12-235.34-.01-470.67 0-706 0-12.33.15-24.67-.36-37 .09V0m402.22 65.96c.06 45.44-.02 90.87.04 136.31 6.13.14 12.26.24 18.38-.05.16-30.14-.16-60.29.17-90.43 5.27 4.53 9.46 10.14 14.21 15.19C455.94 150.71 477.03 174.3 498 198c3.47 3.8 6.61 7.94 10.51 11.34.42-47.68.04-95.38.19-143.07-6.73-.08-13.45-.09-20.18.01-.01 29.52.31 59.07-.16 88.58-5.11-4.33-9.02-9.82-13.64-14.64-24.16-26.6-47.87-53.62-72.23-80.04-.16 1.92-.26 3.85-.27 5.78m202.16-1.67c-17.03 3.33-32.56 13.36-42.86 27.29-10.2 13.44-15.05 30.66-13.99 47.45 1.19 14.14 6.34 28.06 15.27 39.16 14.25 18.37 38.05 28.84 61.21 26.77 17.61-1 34.49-9.38 46.55-22.14-4.09-5.34-8.66-10.32-13.37-15.11-7.75 7.93-17.54 14.16-28.55 16.2-10.17 1.73-20.93.95-30.4-3.33-15.9-6.87-27.76-22.37-29.96-39.58-1.97-13.02 1.63-26.72 9.55-37.22 7.56-10.39 19.25-17.42 31.81-19.86 11.48-1.62 23.61-.21 33.75 5.71 5.18 2.63 9.22 6.84 13.61 10.55 5.23-4.06 9.76-8.92 14.59-13.43-16.03-18.97-43.03-27.73-67.21-22.46m-343.15 1.93c.04 45.33-.07 90.67.06 136 14.9.36 29.81.06 44.71.16 19.23-.1 38.46.2 57.69-.15.03-6.57.05-13.13-.04-19.7-27.68-.04-55.37.09-83.05-.06.14-13.34.07-26.67.02-40.01 22.92-.23 45.85.02 68.77-.14.18-6.5.18-13.01-.01-19.51-22.86-.17-45.72.03-68.59-.1-.16-12.72-.32-25.46.11-38.17 27.62-.13 55.24.28 82.85-.21-.08-6.03-.02-12.06-.03-18.09-34.16-.04-68.33.01-102.49-.02m527.25.06c-.02 19.53.29 39.07-.15 58.59-14.42.81-28.89.16-43.33.37-7.89-.2-15.82.5-23.68-.46-.04-19.47.02-38.94-.03-58.4-6.65-.28-13.31-.18-19.95-.07-.14 21.9-.02 43.8-.06 65.69.15 23.48-.3 46.97.23 70.43 6.52-.1 13.05-.01 19.57-.06.55-19.33.04-38.68.25-58.01 22.4.08 44.8-.05 67.2.05.11 19.33-.21 38.66.16 57.99 6.63-.13 13.26.23 19.88-.25.06-45.3-.02-90.6.04-135.89-6.71-.05-13.42-.09-20.13.02m128.89.01c-15.13 31.54-30.33 63.05-45.5 94.58-6.37 13.85-13.75 27.27-19.48 41.4 6.85.18 13.7.14 20.56.06 19.45-39.84 38.49-79.89 57.79-119.81 2.45-5.42 5.49-10.58 7.48-16.21-6.96-.15-13.91-.14-20.85-.02m-809.02.02c-.09 41.89-.01 83.79-.05 125.69 0 3.45-.01 6.9.18 10.35 25.18.08 50.35-.01 75.53.04 10.83-.09 21.92-3.97 29.6-11.79 7.87-7.65 12.72-18.56 12.19-29.61.45-13.35-7.01-25.85-17.35-33.85 7.25-6.63 11.1-16.42 11.03-26.17-.2-17.46-14.83-33.87-32.5-34.73-26.21.03-52.42-.11-78.63.07z"/><path d="M127.77 84.7c17.08-.27 34.18.02 51.26-.15 5.84-.2 11.79 2.41 15.39 7.06 4.53 5.57 4.93 13.94 1.17 20.02-3.38 5.7-10.05 8.92-16.58 8.81-16.98-.01-33.96.02-50.94-.02-.77-11.88-.24-23.82-.3-35.72zm-.04 54.76c18.42-.39 36.84-.06 55.26-.17 11.55-.44 21.54 10.38 21.34 21.71-.17 8.45-5.53 16.66-13.42 19.86-5.35 2.25-11.26 1.59-16.91 1.68-15.41-.12-30.83.2-46.23-.16-.12-14.3-.05-28.61-.04-42.92z"/></g><path d="M0 267.9c12.33-.45 24.67.06 37-.09 235.33 0 470.66-.01 706 0 93 .08 186-.17 279 .12V269H0z" fill="#c62c33"/></svg>